<?xml version="1.0" standalone="no"?>
<!DOCTYPE svg PUBLIC "-//W3C//DTD SVG 20010904//EN"
 "http://www.w3.org/TR/2001/REC-SVG-20010904/DTD/svg10.dtd">
<svg version="1.0" xmlns="http://www.w3.org/2000/svg"
 width="192.000000pt" height="192.000000pt" viewBox="0 0 192.000000 192.000000"
 preserveAspectRatio="xMidYMid meet">
<metadata>
Created by potrace 1.14, written by Peter Selinger 2001-2017
</metadata>
<g transform="translate(0.000000,192.000000) scale(0.100000,-0.100000)"
fill="#000000" stroke="none">
<path d="M604 1532 c-10 -2 -26 -6 -34 -9 -8 -3 -21 -5 -27 -4 -7 1 -13 -3
-13 -9 0 -6 -4 -8 -10 -5 -5 3 -10 1 -10 -5 0 -6 -4 -8 -10 -5 -5 3 -10 1 -10
-6 0 -7 -3 -9 -6 -6 -8 8 -73 -63 -74 -80 0 -6 -4 -13 -9 -15 -5 -1 -22 -29
-39 -60 -16 -31 -33 -54 -36 -51 -3 4 -6 -6 -6 -21 0 -16 -4 -25 -10 -21 -9 6
-12 -1 -9 -22 0 -3 -6 -10 -15 -15 -9 -5 -14 -13 -11 -19 4 -5 1 -9 -4 -9 -6
0 -11 -7 -11 -15 0 -8 -6 -12 -14 -9 -8 3 -17 1 -21 -5 -3 -6 -22 -11 -41 -11
-26 0 -33 -3 -28 -12 6 -10 5 -10 -8 0 -12 10 -18 10 -27 -1 -7 -9 -22 -12
-38 -9 -14 3 -24 1 -21 -4 5 -9 -27 -45 -34 -39 -2 2 -10 -5 -17 -17 -10 -16
-10 -19 1 -13 10 6 11 5 1 -6 -18 -19 -18 -309 -1 -328 11 -11 10 -12 -2 -6
-13 8 -13 7 0 -10 34 -44 60 -65 80 -65 13 0 19 -4 14 -11 -5 -8 -1 -8 14 0
15 8 23 7 31 -3 6 -7 22 -11 36 -8 18 3 25 0 25 -12 0 -9 5 -16 11 -16 5 0 7
-4 4 -10 -3 -5 -1 -10 5 -10 6 0 8 -4 5 -10 -3 -5 1 -10 10 -10 9 0 13 -4 10
-10 -3 -5 1 -10 10 -10 9 0 13 -4 10 -10 -3 -6 3 -10 15 -10 12 0 18 -5 15
-10 -3 -6 3 -10 14 -10 12 0 21 -4 21 -10 0 -5 5 -10 11 -10 5 0 7 6 3 12 -6
11 -4 11 7 0 26 -24 169 -8 169 21 0 4 5 7 11 7 14 0 39 26 39 40 0 6 5 8 10
5 6 -3 10 1 10 9 0 9 5 16 11 16 5 0 8 4 5 8 -3 4 168 8 379 8 303 0 382 -2
378 -12 -3 -7 5 -19 16 -26 12 -7 21 -19 21 -26 0 -7 5 -10 10 -7 6 3 10 1 10
-4 0 -6 7 -11 16 -11 8 0 12 -4 9 -10 -3 -5 3 -10 14 -10 12 0 21 -4 21 -10 0
-5 5 -10 11 -10 5 0 7 6 3 13 -6 9 -5 9 7 0 18 -14 128 -22 126 -8 -1 5 8 11
21 13 12 2 22 8 22 13 0 5 5 9 10 9 14 0 60 46 60 60 0 5 5 10 10 10 6 0 10 9
10 20 0 11 3 19 8 19 19 -3 43 2 39 8 -3 5 7 9 21 10 15 0 34 12 44 25 10 12
22 28 28 35 16 19 13 305 -3 337 -8 14 -17 23 -20 19 -4 -3 -7 1 -7 10 0 9 -5
19 -12 23 -7 5 -8 2 -3 -7 6 -11 5 -12 -6 -1 -7 6 -21 12 -31 12 -10 0 -18 4
-18 8 0 9 -3 10 -57 13 -20 1 -30 6 -26 13 4 6 -2 4 -12 -4 -13 -10 -16 -11
-11 -2 5 9 3 13 -5 11 -8 -1 -29 -1 -47 0 -24 1 -31 5 -26 14 5 7 0 6 -11 -3
-11 -9 -16 -10 -11 -2 5 9 -4 12 -36 12 -45 1 -91 23 -66 33 9 4 7 6 -4 6 -9
1 -20 11 -24 24 -4 12 -16 30 -27 40 -14 12 -16 17 -6 18 8 0 4 4 -8 9 -13 5
-23 16 -23 25 0 8 -4 15 -10 15 -5 0 -10 7 -10 16 0 8 -4 12 -10 9 -6 -3 -7 1
-4 9 3 9 1 16 -5 16 -7 0 -15 8 -18 18 -4 9 -12 23 -17 30 -39 47 -66 72 -76
72 -6 0 -8 5 -5 10 3 6 -3 10 -15 10 -12 0 -18 5 -15 10 5 9 -27 15 -39 8 -2
-2 -14 6 -27 17 -12 11 -19 15 -16 8 4 -6 3 -14 -3 -18 -5 -3 -10 -1 -10 5 0
6 -4 9 -9 5 -5 -3 -13 0 -16 5 -5 7 -12 5 -21 -7 -9 -11 -13 -13 -12 -4 2 7
-3 16 -11 19 -9 3 -11 0 -6 -8 6 -10 4 -11 -6 -4 -13 8 -400 13 -445 6z m26
-137 c0 6 13 11 30 11 20 1 27 -2 23 -10 -4 -6 0 -5 9 2 12 9 18 10 23 2 5 -9
10 -9 18 -1 29 29 35 11 33 -116 l-1 -128 -176 -2 c-190 -1 -196 1 -156 48 9
10 17 24 17 29 0 6 5 10 10 10 6 0 10 7 10 16 0 8 7 22 15 31 8 8 12 19 9 25
-4 7 -2 8 4 4 7 -4 12 -2 12 5 0 19 58 69 80 69 11 0 20 6 20 13 0 8 4 7 10
-3 5 -8 10 -10 10 -5z m309 3 c8 -7 11 -8 8 -2 -4 6 10 10 38 10 28 0 42 -4
38 -10 -3 -6 0 -6 7 1 11 10 16 9 27 -5 11 -14 12 -14 8 -1 -4 10 0 16 9 16 8
0 12 -5 9 -11 -4 -6 1 -5 10 3 14 11 17 11 18 0 0 -10 2 -11 6 -2 3 10 8 9 19
-2 8 -8 22 -11 32 -8 9 3 14 2 10 -2 -5 -5 2 -13 13 -19 12 -6 22 -15 22 -21
1 -5 11 -20 24 -33 13 -13 23 -27 23 -33 0 -6 5 -7 10 -4 6 4 10 3 9 -2 -4
-22 2 -43 11 -38 6 3 10 1 10 -5 0 -6 7 -18 15 -27 8 -8 13 -19 10 -24 -4 -5
1 -9 10 -9 9 0 14 -4 11 -9 -3 -5 -106 -8 -228 -7 l-222 1 -1 115 c-1 124 1
140 19 140 7 0 18 -6 25 -12z m-484 -638 c-6 -9 8 -14 28 -11 7 1 11 -15 8
-31 0 -5 4 -8 9 -8 7 0 10 -19 9 -44 -2 -25 -6 -43 -11 -40 -4 3 -8 -1 -8 -9
0 -14 -27 -32 -42 -29 -5 1 -8 -2 -8 -7 0 -13 -63 -2 -72 12 -4 7 -8 8 -8 2 0
-5 -9 1 -20 15 -20 26 -28 100 -10 100 6 0 10 7 10 16 0 9 9 18 20 21 11 3 18
8 16 12 -3 3 16 7 40 8 27 2 42 -2 39 -7z m1144 -4 c11 -7 12 -6 6 5 -5 8 6
-1 25 -19 36 -36 43 -79 18 -110 -11 -13 -11 -15 2 -7 8 4 4 -3 -10 -17 -14
-13 -28 -23 -32 -21 -5 2 -8 0 -8 -4 0 -7 -49 -9 -57 -3 -2 2 -6 3 -10 5 -29
8 -43 20 -43 37 0 10 -4 17 -9 14 -5 -3 -9 10 -9 29 0 19 4 32 9 29 5 -3 6 1
4 8 -3 8 2 22 11 33 8 11 12 13 8 5 -7 -13 -5 -13 9 -1 9 7 15 16 13 20 -7 10
57 8 73 -3z"/>
</g>
</svg>
